<?xml version="1.0" encoding="utf-8"?>
<!-- Generator: Adobe Illustrator 19.0.1, SVG Export Plug-In . SVG Version: 6.00 Build 0)  -->
<svg version="1.1" id="Слой_1" xmlns="http://www.w3.org/2000/svg" xmlns:xlink="http://www.w3.org/1999/xlink" x="0px" y="0px"
	 viewBox="-223 25 512 512" style="enable-background:new -223 25 512 512;" xml:space="preserve">
<style type="text/css">
	.st0{fill:#25333D;}
	.st1{fill:url(#SVGID_1_);}
	.st2{fill:url(#SVGID_2_);}
	.st3{fill:none;stroke:#000000;stroke-miterlimit:10;}
	.st4{display:none;enable-background:new    ;}
	.st5{font-family:'MonoglycerideDemiBold';}
	.st6{font-size:48px;}
	.st7{fill:url(#SVGID_3_);}
	.st8{fill:url(#SVGID_4_);}
	.st9{fill:url(#SVGID_5_);}
	.st10{fill:url(#SVGID_6_);}
	.st11{fill:url(#SVGID_7_);}
	.st12{fill:url(#SVGID_8_);}
	.st13{fill:url(#SVGID_9_);}
	.st14{fill:url(#SVGID_10_);}
	.st15{fill:url(#SVGID_11_);}
	.st16{fill:url(#SVGID_12_);}
	.st17{fill:url(#SVGID_13_);}
	.st18{fill:url(#SVGID_14_);}
	.st19{fill:url(#SVGID_15_);}
	.st20{fill:url(#SVGID_16_);}
	.st21{fill:url(#SVGID_17_);}
	.st22{fill:url(#SVGID_18_);}
	.st23{fill:url(#SVGID_19_);}
	.st24{fill:url(#SVGID_20_);}
	.st25{fill:url(#SVGID_21_);}
	.st26{fill:url(#SVGID_22_);}
	.st27{fill:url(#SVGID_23_);}
	.st28{fill:url(#SVGID_24_);}
	.st29{fill:url(#SVGID_25_);}
	.st30{fill:url(#SVGID_26_);}
	.st31{fill:url(#SVGID_27_);}
	.st32{fill:url(#SVGID_28_);}
	.st33{fill:url(#SVGID_29_);}
	.st34{fill:url(#SVGID_30_);}
	.st35{fill:url(#SVGID_31_);}
	.st36{fill:url(#SVGID_32_);}
</style>
<g>
	<rect x="-223" y="25" class="st0" width="512" height="512"/>
</g>
<title>Безымянный-1</title>
<g id="Слой_1_1_">
	
		<linearGradient id="SVGID_1_" gradientUnits="userSpaceOnUse" x1="-107.6853" y1="356.1362" x2="187.7147" y2="356.1362" gradientTransform="matrix(1 0 0 -1 0 568)">
		<stop  offset="0" style="stop-color:#00A896"/>
		<stop  offset="0.6453" style="stop-color:#028090"/>
		<stop  offset="1" style="stop-color:#02C39A"/>
	</linearGradient>
	<path class="st1" d="M187.7,136.3c0,0.4-15.7-1.1-33.2,6.6c-5.6,2.5-10.8,5.6-15.5,9.4c-8.5,6.9-15.3,16-22.4,25.5l-0.1,0.1
		c-13.4,19-22.7,44.1-28.2,61.3c-1.5,4.4-2.6,8.4-3.6,11.5l-0.1,0.4c0,0.1-0.1,0.2-0.1,0.3s-0.1,0.2-0.1,0.3c-0.3,0.8-0.6,1.9-1,3.2
		c-0.1,0.3-0.2,0.6-0.3,0.9c-1.8,4.6-4.3,8.8-7.3,12.7l-0.2,0.3c-8,9.6-21,14.9-21,14.9c-5.4,2.3-11.1,3.6-17,3.9
		c-12.7,0.5-25.1-4-34.5-12.5c-3-2.7-5.9-5.6-8.6-8.7c-2.2-2.4-3.9-4.2-6.6-7.2l-4.7-5.2c-15-16.4-15.6-17-18.2-19.6
		c-9.1-8.8-19.1-16.6-29.7-23.4l-43-74.5c4.7-0.3,9.3-0.3,14,0c7.8,0.6,15.5,2.1,22.9,4.6c8.6,2.8,16.7,6.7,24.3,11.7l0,0
		c4.6,3.3,8.9,7,12.8,11l0,0c3.5,3.4,6.8,7.1,10.3,10.9c8,8.9,15.3,18.4,21.9,28.4c14.1,21,21.6,36.4,40.7,41.6l0,0l0,0
		c5.9,2.1,12.4,1.8,18.1-0.9c0,0,0,0,0.1,0c13-5.1,17.7-16.2,23.4-30.4c4.3-10.6,9.2-22.9,18.6-35.7l0,0c2.8-3.4,25-30.2,48.4-36.8
		c6.7-1.7,13.5-3,20.3-3.8C179.4,135.9,187.7,136.1,187.7,136.3z"/>
	
		<linearGradient id="SVGID_2_" gradientUnits="userSpaceOnUse" x1="-37.3541" y1="253.4285" x2="181.3259" y2="366.8385" gradientTransform="matrix(1 0 0 -1 0 568)">
		<stop  offset="0" style="stop-color:#05668D"/>
		<stop  offset="0.3" style="stop-color:#028090"/>
		<stop  offset="0.6" style="stop-color:#00A896"/>
		<stop  offset="1" style="stop-color:#02C39A"/>
	</linearGradient>
	<path class="st2" d="M188,136l-73,126.4l-7.9,13.8l-67,116l-68.5-118.7l0,0L-64.7,211c3.9,2.4,7.1,4.5,9.4,6.1
		c7.7,5.4,14.9,11.5,21.6,18.1l0,0c2,2,4.5,4.8,17,18.4c1.4,1.6,3,3.3,4.7,5.2c2.4,2.6,4.6,5,6.6,7.2c2.6,3.3,5.5,6.3,8.6,9.1
		c2.8,2.4,5.8,4.6,9,6.4l0.7,0.4l0.9,0.5c0.3,0.2,0.7,0.3,1,0.5c0.7,0.3,1.4,0.6,2.1,0.9c0.3,0.1,0.6,0.2,0.8,0.3l0,0
		c0.4,0.2,0.9,0.3,1.3,0.5c0.1,0,0.2,0.1,0.3,0.1l0.5,0.2l0.7,0.2l0.6,0.2l0.3,0.1c0.4,0.1,0.8,0.2,1.2,0.3h0.2
		c0.3,0.1,0.6,0.2,1,0.3l1.2,0.3c0.4,0.1,0.8,0.2,1.1,0.2c0.8,0.1,1.5,0.3,2.2,0.4l0.6,0.1c0.5,0.1,1,0.1,1.5,0.2s1,0.1,1.5,0.1h0.5
		c0.5,0,1,0.1,1.4,0.1c0.1,0,0.2,0,0.3,0c0.4,0,0.7,0,1,0c0,0,0.5,0,1,0c5.6-0.2,11.1-1.2,16.4-3c0,0,14-5,23.3-16.2l0.2-0.3
		c0.2-0.3,0.4-0.5,0.6-0.8c2.8-3.6,5.1-7.6,6.7-11.9c0.1-0.3,0.2-0.6,0.3-0.9c0.4-1.2,0.8-2.3,1-3.2c0-0.1,0.1-0.2,0.1-0.3l0.1-0.3
		l0.1-0.4c1-3.2,2.1-7.1,3.6-11.5c5.6-17.3,14.8-42.4,28.2-61.3l0.1-0.1c7.8-10.4,14-18.7,22.4-25.5c3.2-2.6,6.7-5,10.4-7
		c13.5-7.3,26.7-8.2,33.2-8.6C185,136.1,186.8,136,188,136z"/>
	<path class="st3" d="M192,122.7"/>
	<path class="st3" d="M-12.7,137.1"/>
</g>
<g>
	<text transform="matrix(1 0 0 1 -50.465 466.8253)" class="st4 st5 st6">Vacoom</text>
	<g>
		
			<linearGradient id="SVGID_3_" gradientUnits="userSpaceOnUse" x1="-49.8411" y1="447.2752" x2="127.3746" y2="447.2752" gradientTransform="matrix(1 0 0 1 0 4)">
			<stop  offset="0" style="stop-color:#00A896"/>
			<stop  offset="0.6453" style="stop-color:#028090"/>
			<stop  offset="1" style="stop-color:#02C39A"/>
		</linearGradient>
		<path class="st7" d="M-19.4,439.2l-13,26.2c-0.5,1-1.1,1.4-2,1.4c-0.6,0-1.1-0.2-1.5-0.6c-0.1-0.1-0.4-0.6-0.8-1.4l-13.1-25.6
			c-0.2-0.3-0.2-0.6-0.2-1c0-0.6,0.2-1.2,0.7-1.7s1-0.7,1.7-0.7c1,0,1.7,0.5,2.2,1.5l11,21.7l10.7-21.7c0.4-1,1.2-1.5,2.2-1.5
			c0.6,0,1.2,0.2,1.7,0.7s0.7,1,0.7,1.7C-19.2,438.6-19.3,438.9-19.4,439.2z"/>
		
			<linearGradient id="SVGID_4_" gradientUnits="userSpaceOnUse" x1="-49.8411" y1="450.7252" x2="127.3746" y2="450.7252" gradientTransform="matrix(1 0 0 1 0 4)">
			<stop  offset="0" style="stop-color:#00A896"/>
			<stop  offset="0.6453" style="stop-color:#028090"/>
			<stop  offset="1" style="stop-color:#02C39A"/>
		</linearGradient>
		<path class="st8" d="M5,467c-1.3,0-2.1-0.9-2.3-2.7c-2.4,1.8-4.9,2.7-7.6,2.7c-3.4,0-6.2-1.2-8.6-3.6s-3.6-5.3-3.6-8.6
			c0-3.4,1.2-6.3,3.6-8.7c2.4-2.4,5.3-3.6,8.6-3.6c3.4,0,6.3,1.2,8.7,3.6s3.6,5.3,3.6,8.7v10c0,0.7-0.2,1.2-0.7,1.6S5.6,467,5,467z
			 M-4.8,447.3c-2.1,0-3.8,0.7-5.3,2.2s-2.2,3.2-2.2,5.3c0,2.1,0.7,3.8,2.2,5.3s3.2,2.2,5.3,2.2s3.9-0.7,5.4-2.2s2.2-3.2,2.2-5.3
			s-0.7-3.8-2.2-5.3S-2.7,447.3-4.8,447.3z"/>
		
			<linearGradient id="SVGID_5_" gradientUnits="userSpaceOnUse" x1="-49.8411" y1="450.5753" x2="127.3746" y2="450.5753" gradientTransform="matrix(1 0 0 1 0 4)">
			<stop  offset="0" style="stop-color:#00A896"/>
			<stop  offset="0.6453" style="stop-color:#028090"/>
			<stop  offset="1" style="stop-color:#02C39A"/>
		</linearGradient>
		<path class="st9" d="M24,447.1c-0.3,0-0.8,0-1.4,0s-1.1,0-1.4,0c-2,0-3.8,0.7-5.2,2.2c-1.4,1.5-2.2,3.2-2.2,5.3
			c0,2,0.7,3.8,2.2,5.2c1.4,1.5,3.2,2.2,5.2,2.2c0.3,0,0.8,0,1.4,0s1.1,0,1.4,0c0.6,0,1.2,0.2,1.6,0.7s0.7,1,0.7,1.7
			s-0.2,1.2-0.7,1.7c-0.4,0.4-1,0.7-1.6,0.7c-0.8,0.1-1.8,0.1-3,0.1c-3.3,0-6.2-1.2-8.5-3.6S9,458,9,454.6c0-3.4,1.2-6.3,3.5-8.7
			c2.3-2.4,5.2-3.6,8.5-3.6h3c0.6,0,1.2,0.2,1.7,0.7s0.7,1,0.7,1.7s-0.2,1.2-0.7,1.7C25.3,446.9,24.8,447.1,24,447.1z"/>
		
			<linearGradient id="SVGID_6_" gradientUnits="userSpaceOnUse" x1="-49.8411" y1="450.7252" x2="127.3746" y2="450.7252" gradientTransform="matrix(1 0 0 1 0 4)">
			<stop  offset="0" style="stop-color:#00A896"/>
			<stop  offset="0.6453" style="stop-color:#028090"/>
			<stop  offset="1" style="stop-color:#02C39A"/>
		</linearGradient>
		<path class="st10" d="M41,467c-3.4,0-6.2-1.2-8.6-3.6s-3.6-5.3-3.6-8.6c0-3.4,1.2-6.3,3.6-8.7c2.4-2.4,5.3-3.6,8.6-3.6
			c3.4,0,6.3,1.2,8.7,3.6s3.6,5.3,3.6,8.7s-1.2,6.2-3.6,8.6C47.3,465.8,44.5,467,41,467z M41.1,447.3c-2.1,0-3.8,0.7-5.3,2.2
			s-2.2,3.2-2.2,5.3c0,2.1,0.7,3.8,2.2,5.3s3.2,2.2,5.3,2.2s3.9-0.7,5.4-2.2s2.2-3.2,2.2-5.3s-0.7-3.8-2.2-5.3
			S43.3,447.3,41.1,447.3z"/>
		
			<linearGradient id="SVGID_7_" gradientUnits="userSpaceOnUse" x1="-49.8411" y1="450.7252" x2="127.3746" y2="450.7252" gradientTransform="matrix(1 0 0 1 0 4)">
			<stop  offset="0" style="stop-color:#00A896"/>
			<stop  offset="0.6453" style="stop-color:#028090"/>
			<stop  offset="1" style="stop-color:#02C39A"/>
		</linearGradient>
		<path class="st11" d="M67.6,467c-3.4,0-6.2-1.2-8.6-3.6c-2.4-2.4-3.6-5.3-3.6-8.6c0-3.4,1.2-6.3,3.6-8.7c2.4-2.4,5.3-3.6,8.6-3.6
			c3.4,0,6.3,1.2,8.7,3.6c2.4,2.4,3.6,5.3,3.6,8.7s-1.2,6.2-3.6,8.6C73.9,465.8,71.1,467,67.6,467z M67.8,447.3
			c-2.1,0-3.8,0.7-5.3,2.2s-2.2,3.2-2.2,5.3c0,2.1,0.7,3.8,2.2,5.3s3.2,2.2,5.3,2.2c2.1,0,3.9-0.7,5.4-2.2s2.2-3.2,2.2-5.3
			s-0.7-3.8-2.2-5.3S69.9,447.3,67.8,447.3z"/>
		
			<linearGradient id="SVGID_8_" gradientUnits="userSpaceOnUse" x1="-49.8411" y1="451.0752" x2="127.3746" y2="451.0752" gradientTransform="matrix(1 0 0 1 0 4)">
			<stop  offset="0" style="stop-color:#00A896"/>
			<stop  offset="0.6453" style="stop-color:#028090"/>
			<stop  offset="1" style="stop-color:#02C39A"/>
		</linearGradient>
		<path class="st12" d="M124.9,467.3c-0.6,0-1.2-0.2-1.7-0.6s-0.7-1-0.7-1.6v-9.6c0-2.1-0.8-3.9-2.3-5.4s-3.3-2.2-5.5-2.2
			c-1.6,0-3,0.4-4.3,1.3s-2.3,2-2.8,3.5c-0.3,0.8-0.4,1.3-0.4,1.6c0,1.3,0,3,0,5.1c0,2.5,0,4.2,0,5.1c0,0.7-0.2,1.3-0.7,1.8
			c-0.5,0.6-1.1,0.8-1.8,0.8s-1.2-0.2-1.7-0.6s-0.7-1-0.7-1.7v-9.5c0-0.1,0-0.3,0-0.6s0-0.5,0-0.6c0-0.4-0.1-0.9-0.4-1.6
			c-0.6-1.5-1.5-2.7-2.8-3.6s-2.8-1.3-4.4-1.3c-2.1,0-3.9,0.7-5.4,2.2s-2.2,3.2-2.2,5.3c0,0,0,3.1,0,9.4c0,0.6-0.2,1.2-0.7,1.7
			s-1.1,0.7-1.8,0.7c-0.6,0-1.2-0.2-1.7-0.6s-0.7-1-0.7-1.6v-9.6c0-3.4,1.2-6.2,3.7-8.6c2.4-2.4,5.4-3.6,8.8-3.6
			c4.2,0,7.6,1.7,10.2,5.1c2.6-3.2,5.9-4.8,9.9-4.8c3.5,0,6.5,1.2,8.9,3.6c2.5,2.4,3.7,5.3,3.7,8.6c0,0,0,3.1,0,9.4
			c0,0.6-0.2,1.2-0.7,1.7C126.1,467.1,125.6,467.3,124.9,467.3z"/>
	</g>
</g>
<g>
	<g>
		<path d="M60.6,454c-0.2,0-0.3,0.1-0.3,0.3v1c0,0.2,0.2,0.3,0.3,0.3s0.3-0.1,0.3-0.3v-1C61,454.1,60.8,454,60.6,454z"/>
		<path d="M62,454c-0.2,0-0.3,0.1-0.3,0.3v1c0,0.2,0.2,0.3,0.3,0.3s0.3-0.1,0.3-0.3v-1C62.3,454.1,62.1,454,62,454z"/>
		<path d="M63.3,453.6c-0.2,0-0.3,0.1-0.3,0.3v1.8c0,0.2,0.2,0.3,0.3,0.3s0.3-0.1,0.3-0.3v-1.8C63.6,453.7,63.5,453.6,63.3,453.6z"
			/>
		<path d="M64.6,453.1c-0.2,0-0.3,0.1-0.3,0.3v2.8c0,0.2,0.2,0.3,0.3,0.3s0.3-0.1,0.3-0.3v-2.8C64.9,453.2,64.8,453.1,64.6,453.1z"
			/>
		<path d="M65.9,452.2c-0.2,0-0.3,0.1-0.3,0.3v4.6c0,0.2,0.2,0.3,0.3,0.3s0.3-0.1,0.3-0.3v-4.6C66.3,452.3,66.1,452.2,65.9,452.2z"
			/>
		<path d="M67.3,450.1c-0.2,0-0.3,0.1-0.3,0.3v8.8c0,0.2,0.2,0.3,0.3,0.3s0.3-0.1,0.3-0.3v-8.8C67.6,450.2,67.4,450.1,67.3,450.1z"
			/>
		<path d="M68.6,450.9c-0.2,0-0.3,0.1-0.3,0.3v7.3c0,0.2,0.2,0.3,0.3,0.3s0.3-0.1,0.3-0.3v-7.3C68.9,451,68.8,450.9,68.6,450.9z"/>
		<path d="M69.9,452.4c-0.2,0-0.3,0.1-0.3,0.3v4.3c0,0.2,0.2,0.3,0.3,0.3s0.3-0.1,0.3-0.3v-4.3C70.1,452.5,70.1,452.4,69.9,452.4z"
			/>
		<path d="M71.1,453.3c-0.2,0-0.3,0.1-0.3,0.3v2.5c0,0.2,0.2,0.3,0.3,0.3s0.3-0.1,0.3-0.3v-2.5C71.4,453.4,71.4,453.3,71.1,453.3z"
			/>
		<path d="M72.4,453.6c-0.2,0-0.3,0.1-0.3,0.3v1.7c0,0.2,0.2,0.3,0.3,0.3s0.3-0.1,0.3-0.3v-1.7C72.9,453.8,72.6,453.6,72.4,453.6z"
			/>
		<path d="M73.8,454c-0.2,0-0.3,0.1-0.3,0.3v1c0,0.2,0.2,0.3,0.3,0.3s0.3-0.1,0.3-0.3v-1C74.1,454.1,73.9,454,73.8,454z"/>
		<path d="M75.1,454c-0.2,0-0.3,0.1-0.3,0.3v1c0,0.2,0.2,0.3,0.3,0.3s0.3-0.1,0.3-0.3v-1C75.4,454.1,75.3,454,75.1,454z"/>
	</g>
	<g>
		
			<linearGradient id="SVGID_9_" gradientUnits="userSpaceOnUse" x1="33.6652" y1="109.3103" x2="48.7652" y2="109.3103" gradientTransform="matrix(1 0 0 -1 26.6587 564.0856)">
			<stop  offset="0" style="stop-color:#05668D"/>
			<stop  offset="0.3" style="stop-color:#028090"/>
			<stop  offset="0.6" style="stop-color:#00A896"/>
			<stop  offset="1" style="stop-color:#02C39A"/>
		</linearGradient>
		<path class="st13" d="M60.6,454c-0.2,0-0.3,0.1-0.3,0.3v1c0,0.2,0.2,0.3,0.3,0.3s0.3-0.1,0.3-0.3v-1C61,454.1,60.8,454,60.6,454z"
			/>
		
			<linearGradient id="SVGID_10_" gradientUnits="userSpaceOnUse" x1="33.6652" y1="109.3103" x2="48.7652" y2="109.3103" gradientTransform="matrix(1 0 0 -1 26.6587 564.0856)">
			<stop  offset="0" style="stop-color:#05668D"/>
			<stop  offset="0.3" style="stop-color:#028090"/>
			<stop  offset="0.6" style="stop-color:#00A896"/>
			<stop  offset="1" style="stop-color:#02C39A"/>
		</linearGradient>
		<path class="st14" d="M62,454c-0.2,0-0.3,0.1-0.3,0.3v1c0,0.2,0.2,0.3,0.3,0.3s0.3-0.1,0.3-0.3v-1C62.3,454.1,62.1,454,62,454z"/>
		
			<linearGradient id="SVGID_11_" gradientUnits="userSpaceOnUse" x1="33.6652" y1="109.3103" x2="48.7652" y2="109.3103" gradientTransform="matrix(1 0 0 -1 26.6587 564.0856)">
			<stop  offset="0" style="stop-color:#05668D"/>
			<stop  offset="0.3" style="stop-color:#028090"/>
			<stop  offset="0.6" style="stop-color:#00A896"/>
			<stop  offset="1" style="stop-color:#02C39A"/>
		</linearGradient>
		<path class="st15" d="M63.3,453.6c-0.2,0-0.3,0.1-0.3,0.3v1.8c0,0.2,0.2,0.3,0.3,0.3s0.3-0.1,0.3-0.3v-1.8
			C63.6,453.7,63.5,453.6,63.3,453.6z"/>
		
			<linearGradient id="SVGID_12_" gradientUnits="userSpaceOnUse" x1="33.6652" y1="109.3103" x2="48.7652" y2="109.3103" gradientTransform="matrix(1 0 0 -1 26.6587 564.0856)">
			<stop  offset="0" style="stop-color:#05668D"/>
			<stop  offset="0.3" style="stop-color:#028090"/>
			<stop  offset="0.6" style="stop-color:#00A896"/>
			<stop  offset="1" style="stop-color:#02C39A"/>
		</linearGradient>
		<path class="st16" d="M64.6,453.1c-0.2,0-0.3,0.1-0.3,0.3v2.8c0,0.2,0.2,0.3,0.3,0.3s0.3-0.1,0.3-0.3v-2.8
			C64.9,453.2,64.8,453.1,64.6,453.1z"/>
		
			<linearGradient id="SVGID_13_" gradientUnits="userSpaceOnUse" x1="33.6652" y1="109.3104" x2="48.7652" y2="109.3104" gradientTransform="matrix(1 0 0 -1 26.6587 564.0856)">
			<stop  offset="0" style="stop-color:#05668D"/>
			<stop  offset="0.3" style="stop-color:#028090"/>
			<stop  offset="0.6" style="stop-color:#00A896"/>
			<stop  offset="1" style="stop-color:#02C39A"/>
		</linearGradient>
		<path class="st17" d="M65.9,452.2c-0.2,0-0.3,0.1-0.3,0.3v4.6c0,0.2,0.2,0.3,0.3,0.3s0.3-0.1,0.3-0.3v-4.6
			C66.3,452.3,66.1,452.2,65.9,452.2z"/>
		
			<linearGradient id="SVGID_14_" gradientUnits="userSpaceOnUse" x1="33.6652" y1="109.3103" x2="48.7652" y2="109.3103" gradientTransform="matrix(1 0 0 -1 26.6587 564.0856)">
			<stop  offset="0" style="stop-color:#05668D"/>
			<stop  offset="0.3" style="stop-color:#028090"/>
			<stop  offset="0.6" style="stop-color:#00A896"/>
			<stop  offset="1" style="stop-color:#02C39A"/>
		</linearGradient>
		<path class="st18" d="M67.3,450.1c-0.2,0-0.3,0.1-0.3,0.3v8.8c0,0.2,0.2,0.3,0.3,0.3s0.3-0.1,0.3-0.3v-8.8
			C67.6,450.2,67.4,450.1,67.3,450.1z"/>
		
			<linearGradient id="SVGID_15_" gradientUnits="userSpaceOnUse" x1="33.6652" y1="109.2604" x2="48.7652" y2="109.2604" gradientTransform="matrix(1 0 0 -1 26.6587 564.0856)">
			<stop  offset="0" style="stop-color:#05668D"/>
			<stop  offset="0.3" style="stop-color:#028090"/>
			<stop  offset="0.6" style="stop-color:#00A896"/>
			<stop  offset="1" style="stop-color:#02C39A"/>
		</linearGradient>
		<path class="st19" d="M68.6,450.9c-0.2,0-0.3,0.1-0.3,0.3v7.3c0,0.2,0.2,0.3,0.3,0.3s0.3-0.1,0.3-0.3v-7.3
			C68.9,451,68.8,450.9,68.6,450.9z"/>
		
			<linearGradient id="SVGID_16_" gradientUnits="userSpaceOnUse" x1="33.6652" y1="109.2604" x2="48.7652" y2="109.2604" gradientTransform="matrix(1 0 0 -1 26.6587 564.0856)">
			<stop  offset="0" style="stop-color:#05668D"/>
			<stop  offset="0.3" style="stop-color:#028090"/>
			<stop  offset="0.6" style="stop-color:#00A896"/>
			<stop  offset="1" style="stop-color:#02C39A"/>
		</linearGradient>
		<path class="st20" d="M69.9,452.4c-0.2,0-0.3,0.1-0.3,0.3v4.3c0,0.2,0.2,0.3,0.3,0.3s0.3-0.1,0.3-0.3v-4.3
			C70.1,452.5,70.1,452.4,69.9,452.4z"/>
		
			<linearGradient id="SVGID_17_" gradientUnits="userSpaceOnUse" x1="33.6652" y1="109.2604" x2="48.7652" y2="109.2604" gradientTransform="matrix(1 0 0 -1 26.6587 564.0856)">
			<stop  offset="0" style="stop-color:#05668D"/>
			<stop  offset="0.3" style="stop-color:#028090"/>
			<stop  offset="0.6" style="stop-color:#00A896"/>
			<stop  offset="1" style="stop-color:#02C39A"/>
		</linearGradient>
		<path class="st21" d="M71.1,453.3c-0.2,0-0.3,0.1-0.3,0.3v2.5c0,0.2,0.2,0.3,0.3,0.3s0.3-0.1,0.3-0.3v-2.5
			C71.4,453.4,71.4,453.3,71.1,453.3z"/>
		
			<linearGradient id="SVGID_18_" gradientUnits="userSpaceOnUse" x1="33.6652" y1="109.3603" x2="48.7652" y2="109.3603" gradientTransform="matrix(1 0 0 -1 26.6587 564.0856)">
			<stop  offset="0" style="stop-color:#05668D"/>
			<stop  offset="0.3" style="stop-color:#028090"/>
			<stop  offset="0.6" style="stop-color:#00A896"/>
			<stop  offset="1" style="stop-color:#02C39A"/>
		</linearGradient>
		<path class="st22" d="M72.4,453.6c-0.2,0-0.3,0.1-0.3,0.3v1.7c0,0.2,0.2,0.3,0.3,0.3s0.3-0.1,0.3-0.3v-1.7
			C72.9,453.8,72.6,453.6,72.4,453.6z"/>
		
			<linearGradient id="SVGID_19_" gradientUnits="userSpaceOnUse" x1="33.6652" y1="109.3103" x2="48.7652" y2="109.3103" gradientTransform="matrix(1 0 0 -1 26.6587 564.0856)">
			<stop  offset="0" style="stop-color:#05668D"/>
			<stop  offset="0.3" style="stop-color:#028090"/>
			<stop  offset="0.6" style="stop-color:#00A896"/>
			<stop  offset="1" style="stop-color:#02C39A"/>
		</linearGradient>
		<path class="st23" d="M73.8,454c-0.2,0-0.3,0.1-0.3,0.3v1c0,0.2,0.2,0.3,0.3,0.3s0.3-0.1,0.3-0.3v-1C74.1,454.1,73.9,454,73.8,454
			z"/>
		
			<linearGradient id="SVGID_20_" gradientUnits="userSpaceOnUse" x1="33.6652" y1="109.3103" x2="48.7652" y2="109.3103" gradientTransform="matrix(1 0 0 -1 26.6587 564.0856)">
			<stop  offset="0" style="stop-color:#05668D"/>
			<stop  offset="0.3" style="stop-color:#028090"/>
			<stop  offset="0.6" style="stop-color:#00A896"/>
			<stop  offset="1" style="stop-color:#02C39A"/>
		</linearGradient>
		<path class="st24" d="M75.1,454c-0.2,0-0.3,0.1-0.3,0.3v1c0,0.2,0.2,0.3,0.3,0.3s0.3-0.1,0.3-0.3v-1C75.4,454.1,75.3,454,75.1,454
			z"/>
	</g>
</g>
<g>
	<g>
		<path d="M34,454.4c-0.2,0-0.3,0.1-0.3,0.1v0.5c0,0.1,0.2,0.1,0.3,0.1s0.3-0.1,0.3-0.1v-0.5C34.3,454.5,34.1,454.4,34,454.4z"/>
		<path d="M35.3,454.4c-0.2,0-0.3,0.1-0.3,0.1v0.5c0,0.1,0.2,0.1,0.3,0.1c0.2,0,0.3-0.1,0.3-0.1v-0.5
			C35.6,454.5,35.5,454.4,35.3,454.4z"/>
		<path d="M36.6,454.2c-0.2,0-0.3,0.1-0.3,0.1v0.9c0,0.1,0.2,0.1,0.3,0.1c0.2,0,0.3-0.1,0.3-0.1v-0.8
			C37,454.3,36.8,454.2,36.6,454.2z"/>
		<path d="M38,454c-0.2,0-0.3,0.1-0.3,0.1v1.3c0,0.1,0.2,0.1,0.3,0.1c0.2,0,0.3-0.1,0.3-0.1v-1.3C38.3,454.1,38.1,454,38,454z"/>
		<path d="M39.3,453.6c-0.2,0-0.3,0.1-0.3,0.1v2.1c0,0.1,0.2,0.1,0.3,0.1c0.2,0,0.3-0.1,0.3-0.1v-2.1
			C39.5,453.7,39.5,453.6,39.3,453.6z"/>
		<path d="M40.5,452.6c-0.2,0-0.3,0.1-0.3,0.1v4.1c0,0.1,0.2,0.1,0.3,0.1s0.3-0.1,0.3-0.1v-4.1C40.8,452.7,40.8,452.6,40.5,452.6z"
			/>
		<path d="M41.8,453c-0.2,0-0.3,0.1-0.3,0.1v3.4c0,0.1,0.2,0.1,0.3,0.1c0.2,0,0.3-0.1,0.3-0.1v-3.4C42.3,453,42,453,41.8,453z"/>
		<path d="M43.1,453.7c-0.2,0-0.3,0.1-0.3,0.1v2c0,0.1,0.2,0.1,0.3,0.1s0.3-0.1,0.3-0.1v-2C43.5,453.7,43.3,453.7,43.1,453.7z"/>
		<path d="M44.5,454.1c-0.2,0-0.3,0.1-0.3,0.1v1.2c0,0.1,0.2,0.1,0.3,0.1s0.3-0.1,0.3-0.1v-1.2C44.8,454.1,44.6,454.1,44.5,454.1z"
			/>
		<path d="M45.8,454.3c-0.2,0-0.3,0.1-0.3,0.1v0.8c0,0.1,0.2,0.1,0.3,0.1c0.2,0,0.3-0.1,0.3-0.1v-0.8
			C46.1,454.3,46,454.3,45.8,454.3z"/>
		<path d="M47.1,454.4c-0.2,0-0.3,0.1-0.3,0.1v0.5c0,0.1,0.2,0.1,0.3,0.1s0.3-0.1,0.3-0.1v-0.5C47.5,454.5,47.3,454.4,47.1,454.4z"
			/>
		<path d="M48.5,454.4c-0.2,0-0.3,0.1-0.3,0.1v0.5c0,0.1,0.2,0.1,0.3,0.1c0.2,0,0.3-0.1,0.3-0.1v-0.5
			C48.8,454.5,48.6,454.4,48.5,454.4z"/>
	</g>
	<g>
		
			<linearGradient id="SVGID_21_" gradientUnits="userSpaceOnUse" x1="33.6652" y1="109.2748" x2="48.7694" y2="109.2748" gradientTransform="matrix(1 0 0 -1 0 564)">
			<stop  offset="0" style="stop-color:#05668D"/>
			<stop  offset="0.3" style="stop-color:#028090"/>
			<stop  offset="0.6" style="stop-color:#00A896"/>
			<stop  offset="1" style="stop-color:#02C39A"/>
		</linearGradient>
		<path class="st25" d="M34,454.4c-0.2,0-0.3,0.1-0.3,0.1v0.5c0,0.1,0.2,0.1,0.3,0.1s0.3-0.1,0.3-0.1v-0.5
			C34.3,454.5,34.1,454.4,34,454.4z"/>
		
			<linearGradient id="SVGID_22_" gradientUnits="userSpaceOnUse" x1="33.6652" y1="109.2748" x2="48.7694" y2="109.2748" gradientTransform="matrix(1 0 0 -1 0 564)">
			<stop  offset="0" style="stop-color:#05668D"/>
			<stop  offset="0.3" style="stop-color:#028090"/>
			<stop  offset="0.6" style="stop-color:#00A896"/>
			<stop  offset="1" style="stop-color:#02C39A"/>
		</linearGradient>
		<path class="st26" d="M35.3,454.4c-0.2,0-0.3,0.1-0.3,0.1v0.5c0,0.1,0.2,0.1,0.3,0.1c0.2,0,0.3-0.1,0.3-0.1v-0.5
			C35.6,454.5,35.5,454.4,35.3,454.4z"/>
		
			<linearGradient id="SVGID_23_" gradientUnits="userSpaceOnUse" x1="33.6652" y1="109.2748" x2="48.7694" y2="109.2748" gradientTransform="matrix(1 0 0 -1 0 564)">
			<stop  offset="0" style="stop-color:#05668D"/>
			<stop  offset="0.3" style="stop-color:#028090"/>
			<stop  offset="0.6" style="stop-color:#00A896"/>
			<stop  offset="1" style="stop-color:#02C39A"/>
		</linearGradient>
		<path class="st27" d="M36.6,454.2c-0.2,0-0.3,0.1-0.3,0.1v0.9c0,0.1,0.2,0.1,0.3,0.1c0.2,0,0.3-0.1,0.3-0.1v-0.8
			C37,454.3,36.8,454.2,36.6,454.2z"/>
		
			<linearGradient id="SVGID_24_" gradientUnits="userSpaceOnUse" x1="33.6652" y1="109.2748" x2="48.7694" y2="109.2748" gradientTransform="matrix(1 0 0 -1 0 564)">
			<stop  offset="0" style="stop-color:#05668D"/>
			<stop  offset="0.3" style="stop-color:#028090"/>
			<stop  offset="0.6" style="stop-color:#00A896"/>
			<stop  offset="1" style="stop-color:#02C39A"/>
		</linearGradient>
		<path class="st28" d="M38,454c-0.2,0-0.3,0.1-0.3,0.1v1.3c0,0.1,0.2,0.1,0.3,0.1c0.2,0,0.3-0.1,0.3-0.1v-1.3
			C38.3,454.1,38.1,454,38,454z"/>
		
			<linearGradient id="SVGID_25_" gradientUnits="userSpaceOnUse" x1="33.6652" y1="109.2747" x2="48.7694" y2="109.2747" gradientTransform="matrix(1 0 0 -1 0 564)">
			<stop  offset="0" style="stop-color:#05668D"/>
			<stop  offset="0.3" style="stop-color:#028090"/>
			<stop  offset="0.6" style="stop-color:#00A896"/>
			<stop  offset="1" style="stop-color:#02C39A"/>
		</linearGradient>
		<path class="st29" d="M39.3,453.6c-0.2,0-0.3,0.1-0.3,0.1v2.1c0,0.1,0.2,0.1,0.3,0.1c0.2,0,0.3-0.1,0.3-0.1v-2.1
			C39.5,453.7,39.5,453.6,39.3,453.6z"/>
		
			<linearGradient id="SVGID_26_" gradientUnits="userSpaceOnUse" x1="33.6652" y1="109.2747" x2="48.7694" y2="109.2747" gradientTransform="matrix(1 0 0 -1 0 564)">
			<stop  offset="0" style="stop-color:#05668D"/>
			<stop  offset="0.3" style="stop-color:#028090"/>
			<stop  offset="0.6" style="stop-color:#00A896"/>
			<stop  offset="1" style="stop-color:#02C39A"/>
		</linearGradient>
		<path class="st30" d="M40.5,452.6c-0.2,0-0.3,0.1-0.3,0.1v4.1c0,0.1,0.2,0.1,0.3,0.1s0.3-0.1,0.3-0.1v-4.1
			C40.8,452.7,40.8,452.6,40.5,452.6z"/>
		
			<linearGradient id="SVGID_27_" gradientUnits="userSpaceOnUse" x1="33.6652" y1="109.2248" x2="48.7694" y2="109.2248" gradientTransform="matrix(1 0 0 -1 0 564)">
			<stop  offset="0" style="stop-color:#05668D"/>
			<stop  offset="0.3" style="stop-color:#028090"/>
			<stop  offset="0.6" style="stop-color:#00A896"/>
			<stop  offset="1" style="stop-color:#02C39A"/>
		</linearGradient>
		<path class="st31" d="M41.8,453c-0.2,0-0.3,0.1-0.3,0.1v3.4c0,0.1,0.2,0.1,0.3,0.1c0.2,0,0.3-0.1,0.3-0.1v-3.4
			C42.3,453,42,453,41.8,453z"/>
		
			<linearGradient id="SVGID_28_" gradientUnits="userSpaceOnUse" x1="33.6652" y1="109.2248" x2="48.7694" y2="109.2248" gradientTransform="matrix(1 0 0 -1 0 564)">
			<stop  offset="0" style="stop-color:#05668D"/>
			<stop  offset="0.3" style="stop-color:#028090"/>
			<stop  offset="0.6" style="stop-color:#00A896"/>
			<stop  offset="1" style="stop-color:#02C39A"/>
		</linearGradient>
		<path class="st32" d="M43.1,453.7c-0.2,0-0.3,0.1-0.3,0.1v2c0,0.1,0.2,0.1,0.3,0.1s0.3-0.1,0.3-0.1v-2
			C43.5,453.7,43.3,453.7,43.1,453.7z"/>
		
			<linearGradient id="SVGID_29_" gradientUnits="userSpaceOnUse" x1="33.6652" y1="109.2247" x2="48.7694" y2="109.2247" gradientTransform="matrix(1 0 0 -1 0 564)">
			<stop  offset="0" style="stop-color:#05668D"/>
			<stop  offset="0.3" style="stop-color:#028090"/>
			<stop  offset="0.6" style="stop-color:#00A896"/>
			<stop  offset="1" style="stop-color:#02C39A"/>
		</linearGradient>
		<path class="st33" d="M44.5,454.1c-0.2,0-0.3,0.1-0.3,0.1v1.2c0,0.1,0.2,0.1,0.3,0.1s0.3-0.1,0.3-0.1v-1.2
			C44.8,454.1,44.6,454.1,44.5,454.1z"/>
		
			<linearGradient id="SVGID_30_" gradientUnits="userSpaceOnUse" x1="33.6652" y1="109.2248" x2="48.7694" y2="109.2248" gradientTransform="matrix(1 0 0 -1 0 564)">
			<stop  offset="0" style="stop-color:#05668D"/>
			<stop  offset="0.3" style="stop-color:#028090"/>
			<stop  offset="0.6" style="stop-color:#00A896"/>
			<stop  offset="1" style="stop-color:#02C39A"/>
		</linearGradient>
		<path class="st34" d="M45.8,454.3c-0.2,0-0.3,0.1-0.3,0.1v0.8c0,0.1,0.2,0.1,0.3,0.1c0.2,0,0.3-0.1,0.3-0.1v-0.8
			C46.1,454.3,46,454.3,45.8,454.3z"/>
		
			<linearGradient id="SVGID_31_" gradientUnits="userSpaceOnUse" x1="33.6652" y1="109.2748" x2="48.7694" y2="109.2748" gradientTransform="matrix(1 0 0 -1 0 564)">
			<stop  offset="0" style="stop-color:#05668D"/>
			<stop  offset="0.3" style="stop-color:#028090"/>
			<stop  offset="0.6" style="stop-color:#00A896"/>
			<stop  offset="1" style="stop-color:#02C39A"/>
		</linearGradient>
		<path class="st35" d="M47.1,454.4c-0.2,0-0.3,0.1-0.3,0.1v0.5c0,0.1,0.2,0.1,0.3,0.1s0.3-0.1,0.3-0.1v-0.5
			C47.5,454.5,47.3,454.4,47.1,454.4z"/>
		
			<linearGradient id="SVGID_32_" gradientUnits="userSpaceOnUse" x1="33.6652" y1="109.2748" x2="48.7694" y2="109.2748" gradientTransform="matrix(1 0 0 -1 0 564)">
			<stop  offset="0" style="stop-color:#05668D"/>
			<stop  offset="0.3" style="stop-color:#028090"/>
			<stop  offset="0.6" style="stop-color:#00A896"/>
			<stop  offset="1" style="stop-color:#02C39A"/>
		</linearGradient>
		<path class="st36" d="M48.5,454.4c-0.2,0-0.3,0.1-0.3,0.1v0.5c0,0.1,0.2,0.1,0.3,0.1c0.2,0,0.3-0.1,0.3-0.1v-0.5
			C48.8,454.5,48.6,454.4,48.5,454.4z"/>
	</g>
</g>
</svg>
